<svg width="16" height="16" viewBox="0 0 16 16" fill="none" xmlns="http://www.w3.org/2000/svg">
<path d="M2.56667 5.74706C2.46936 5.30874 2.4843 4.85295 2.6101 4.42195C2.73591 3.99095 2.9685 3.59869 3.28631 3.28154C3.60413 2.96439 3.99687 2.73262 4.42814 2.60772C4.8594 2.48282 5.31522 2.46883 5.75333 2.56706C5.99447 2.18992 6.32667 1.87956 6.7193 1.66458C7.11193 1.4496 7.55236 1.33691 8 1.33691C8.44763 1.33691 8.88807 1.4496 9.2807 1.66458C9.67333 1.87956 10.0055 2.18992 10.2467 2.56706C10.6854 2.46841 11.142 2.48233 11.574 2.60753C12.0059 2.73274 12.3992 2.96515 12.7172 3.28316C13.0352 3.60117 13.2677 3.99444 13.3929 4.42639C13.5181 4.85834 13.532 5.31495 13.4333 5.75372C13.8105 5.99486 14.1208 6.32706 14.3358 6.71969C14.5508 7.11232 14.6635 7.55276 14.6635 8.00039C14.6635 8.44803 14.5508 8.88846 14.3358 9.28109C14.1208 9.67372 13.8105 10.0059 13.4333 10.2471C13.5316 10.6852 13.5176 11.141 13.3927 11.5723C13.2678 12.0035 13.036 12.3963 12.7189 12.7141C12.4017 13.0319 12.0094 13.2645 11.5784 13.3903C11.1474 13.5161 10.6916 13.531 10.2533 13.4337C10.0125 13.8123 9.68005 14.124 9.28675 14.3399C8.89345 14.5559 8.45202 14.6691 8.00333 14.6691C7.55465 14.6691 7.11322 14.5559 6.71991 14.3399C6.32661 14.124 5.99416 13.8123 5.75333 13.4337C5.31522 13.5319 4.8594 13.518 4.42814 13.3931C3.99687 13.2682 3.60413 13.0364 3.28631 12.7192C2.9685 12.4021 2.73591 12.0098 2.6101 11.5788C2.4843 11.1478 2.46936 10.692 2.56667 10.2537C2.18664 10.0132 1.87361 9.68051 1.6567 9.28653C1.43979 8.89256 1.32604 8.45013 1.32604 8.00039C1.32604 7.55065 1.43979 7.10822 1.6567 6.71425C1.87361 6.32028 2.18664 5.98756 2.56667 5.74706Z" fill="#0000FF"/>
<path d="M6 8.00033L7.33333 9.33366L10 6.66699" stroke="white" stroke-width="1.33333" stroke-linecap="round" stroke-linejoin="round"/>
</svg>
